<?xml version="1.0" encoding="UTF-8"?>
<svg id="Layer_1" data-name="Layer 1" xmlns="http://www.w3.org/2000/svg" viewBox="0 0 18 16">
  <defs>
    <style>
      .cls-1 {
        fill: #1b4487;
      }
    </style>
  </defs>
  <path class="cls-1" d="M3,14v1c0,.28-.1.52-.29.71-.19.19-.43.29-.71.29h-1c-.28,0-.52-.1-.71-.29-.19-.19-.29-.43-.29-.71V7L2.1,1c.1-.3.28-.54.54-.73s.55-.28.86-.28h11c.32,0,.6.09.86.28s.44.43.54.73l2.1,6v8c0,.28-.1.52-.29.71-.19.19-.43.29-.71.29h-1c-.28,0-.52-.1-.71-.29-.19-.19-.29-.43-.29-.71v-1H3ZM2.8,5h12.4l-1.05-3H3.85l-1.05,3ZM4.5,11c.42,0,.77-.15,1.06-.44s.44-.65.44-1.06-.15-.77-.44-1.06-.65-.44-1.06-.44-.77.15-1.06.44c-.29.29-.44.65-.44,1.06s.15.77.44,1.06c.29.29.65.44,1.06.44ZM13.5,11c.42,0,.77-.15,1.06-.44s.44-.65.44-1.06-.15-.77-.44-1.06-.65-.44-1.06-.44-.77.15-1.06.44-.44.65-.44,1.06.15.77.44,1.06.65.44,1.06.44Z"/>
</svg>