<?xml version="1.0" encoding="UTF-8"?>
<svg id="Layer_1" data-name="Layer 1" xmlns="http://www.w3.org/2000/svg" viewBox="0 0 19.97 14">
  <defs>
    <style>
      .cls-1 {
        fill: #1b4487;
      }
    </style>
  </defs>
  <path class="cls-1" d="M2.54,14c-.85,0-1.51-.3-1.98-.89-.47-.59-.64-1.31-.53-2.16L1.08,3.45c.15-1,.6-1.83,1.34-2.48s1.61-.98,2.61-.98h9.9c1,0,1.87.33,2.61.98s1.19,1.48,1.34,2.48l1.05,7.5c.12.85-.06,1.57-.53,2.16-.47.59-1.13.89-1.98.89-.35,0-.68-.06-.98-.19s-.58-.31-.83-.56l-2.25-2.25h-6.8l-2.25,2.25c-.25.25-.53.44-.83.56s-.63.19-.98.19ZM14.99,8c.28,0,.52-.1.71-.29s.29-.43.29-.71-.1-.52-.29-.71c-.19-.19-.43-.29-.71-.29s-.52.1-.71.29c-.19.19-.29.43-.29.71s.1.52.29.71.43.29.71.29ZM12.99,5c.28,0,.52-.1.71-.29s.29-.43.29-.71-.1-.52-.29-.71-.43-.29-.71-.29-.52.1-.71.29-.29.43-.29.71.1.52.29.71.43.29.71.29ZM5.74,8h1.5v-1.75h1.75v-1.5h-1.75v-1.75h-1.5v1.75h-1.75v1.5h1.75v1.75Z"/>
</svg>