<?xml version="1.0" encoding="UTF-8"?>
<svg id="Layer_1" data-name="Layer 1" xmlns="http://www.w3.org/2000/svg" viewBox="0 0 20 18">
  <defs>
    <style>
      .cls-1 {
        fill: #1b4487;
      }
    </style>
  </defs>
  <path class="cls-1" d="M6,18v-2H2c-.55,0-1.02-.2-1.41-.59s-.59-.86-.59-1.41V2C0,1.45.2.98.59.59s.86-.59,1.41-.59h16c.55,0,1.02.2,1.41.59s.59.86.59,1.41v2h-2v-2H2v12h7v4h-3ZM13.15,13.5c0-.65.23-1.2.69-1.66s1.01-.69,1.66-.69,1.2.23,1.66.69.69,1.01.69,1.66-.23,1.2-.69,1.66-1.01.69-1.66.69-1.2-.23-1.66-.69-.69-1.01-.69-1.66ZM19,5c.28,0,.52.1.71.29s.29.43.29.71v11c0,.28-.1.52-.29.71-.19.19-.43.29-.71.29h-7c-.28,0-.52-.1-.71-.29-.19-.19-.29-.43-.29-.71V6c0-.28.1-.52.29-.71s.43-.29.71-.29h7ZM15.5,6c-.43,0-.79.14-1.08.43s-.43.64-.43,1.08.14.79.43,1.08.64.43,1.08.43.79-.14,1.08-.43.43-.64.43-1.08-.14-.79-.43-1.08-.64-.43-1.08-.43ZM15.5,17c.98,0,1.81-.34,2.49-1.01s1.01-1.5,1.01-2.49-.34-1.81-1.01-2.49-1.5-1.01-2.49-1.01-1.81.34-2.49,1.01-1.01,1.5-1.01,2.49.34,1.81,1.01,2.49,1.5,1.01,2.49,1.01Z"/>
</svg>