<?xml version="1.0" encoding="UTF-8"?>
<svg id="Layer_1" data-name="Layer 1" xmlns="http://www.w3.org/2000/svg" viewBox="0 0 20 16">
  <defs>
    <style>
      .cls-1 {
        fill: #1b4487;
      }
    </style>
  </defs>
  <path class="cls-1" d="M3,13c-.55,0-1.02-.2-1.41-.59-.39-.39-.59-.86-.59-1.41V2c0-.55.2-1.02.59-1.41.39-.39.86-.59,1.41-.59h14c.55,0,1.02.2,1.41.59s.59.86.59,1.41h-5.5c-.97,0-1.79.34-2.48,1.03-.68.68-1.03,1.51-1.03,2.48v7.5H3ZM13.5,16c-.42,0-.77-.15-1.06-.44s-.44-.65-.44-1.06V5.5c0-.42.15-.77.44-1.06s.65-.44,1.06-.44h5c.42,0,.77.15,1.06.44s.44.65.44,1.06v9c0,.42-.15.77-.44,1.06s-.65.44-1.06.44h-5ZM0,16v-2h10v2H0ZM16,8.5c.22,0,.4-.08.54-.23s.21-.33.21-.53c0-.22-.07-.4-.21-.54-.14-.14-.32-.21-.54-.21-.2,0-.38.07-.53.21-.15.14-.23.32-.23.54,0,.2.08.38.23.53s.33.23.53.23Z"/>
</svg>