<?xml version="1.0" encoding="UTF-8"?>
<svg id="Layer_1" data-name="Layer 1" xmlns="http://www.w3.org/2000/svg" viewBox="0 0 18.08 18.02">
  <defs>
    <style>
      .cls-1 {
        fill: #1b4487;
      }
    </style>
  </defs>
  <path class="cls-1" d="M16.68,18.02l-6.35-6.35,1.4-1.4,6.35,6.35-1.4,1.4ZM3.03,17.32C1.37,15.69.39,13.77.1,11.57c-.29-2.2.09-4.26,1.14-6.18.05.57.19,1.2.43,1.91s.55,1.45.96,2.24.9,1.59,1.46,2.41,1.19,1.64,1.88,2.44l-2.93,2.93ZM7.33,13.02c-.8-.8-1.5-1.67-2.1-2.61s-1.07-1.85-1.41-2.74c-.34-.88-.53-1.69-.58-2.41s.11-1.26.46-1.61c.35-.37.89-.53,1.61-.5s1.53.22,2.43.56,1.81.82,2.75,1.43c.94.61,1.81,1.31,2.61,2.11l-5.78,5.78ZM14.48,5.87c-.78-.68-1.59-1.3-2.41-1.85s-1.63-1.03-2.4-1.45-1.52-.75-2.23-.99-1.35-.39-1.91-.44C7.45.15,9.5-.2,11.7.11c2.19.31,4.09,1.26,5.69,2.86l-2.9,2.9Z"/>
</svg>