<?xml version="1.0" encoding="UTF-8"?>
<svg id="Layer_1" data-name="Layer 1" xmlns="http://www.w3.org/2000/svg" viewBox="0 0 19.98 20">
  <defs>
    <style>
      .cls-1 {
        fill: #fff;
      }
    </style>
  </defs>
  <path class="cls-1" d="M6,20c-.55,0-1.02-.2-1.41-.59s-.59-.86-.59-1.41.2-1.02.59-1.41.86-.59,1.41-.59,1.02.2,1.41.59.59.86.59,1.41-.2,1.02-.59,1.41-.86.59-1.41.59ZM16,20c-.55,0-1.02-.2-1.41-.59s-.59-.86-.59-1.41.2-1.02.59-1.41.86-.59,1.41-.59,1.02.2,1.41.59.59.86.59,1.41-.2,1.02-.59,1.41-.86.59-1.41.59ZM4.2,2h14.75c.38,0,.68.17.88.51s.21.69.03,1.04l-3.55,6.4c-.18.33-.43.59-.74.78s-.65.28-1.01.28h-7.45l-1.1,2h12v2H6c-.75,0-1.32-.33-1.7-.99s-.4-1.31-.05-1.96l1.35-2.45L2,2H0V0h3.25l.95,2Z"/>
</svg>