<?xml version="1.0" encoding="UTF-8"?>
<svg id="Layer_1" xmlns="http://www.w3.org/2000/svg" version="1.1" viewBox="0 0 24 24">
  <!-- Generator: Adobe Illustrator 29.3.1, SVG Export Plug-In . SVG Version: 2.1.0 Build 151)  -->
  <defs>
    <style>
      .st0 {
        fill: #fff;
      }
    </style>
  </defs>
  <path class="st0" d="M12,21l-1.5-1.3c-1.7-1.5-3.1-2.8-4.2-3.9s-2-2.1-2.6-3-1.1-1.7-1.4-2.4-.4-1.5-.4-2.3c0-1.6.5-2.9,1.6-3.9s2.4-1.6,3.9-1.6,1.7.2,2.5.6,1.5.9,2,1.6c.6-.7,1.2-1.2,2-1.6s1.6-.6,2.5-.6c1.6,0,2.9.5,3.9,1.6s1.6,2.4,1.6,3.9-.1,1.5-.4,2.3-.7,1.5-1.4,2.4-1.5,1.9-2.6,3-2.5,2.4-4.2,3.9l-1.5,1.3Z"/>
</svg>