<?xml version="1.0" encoding="UTF-8"?>
<svg id="Layer_1" xmlns="http://www.w3.org/2000/svg" version="1.1" viewBox="0 0 24 24">
  <!-- Generator: Adobe Illustrator 29.3.1, SVG Export Plug-In . SVG Version: 2.1.0 Build 151)  -->
  <defs>
    <style>
      .st0 {
        fill: #fff;
      }
    </style>
  </defs>
  <path class="st0" d="M16.5,2.6c1.6,0,2.9.5,3.9,1.6,1.1,1,1.6,2.4,1.6,3.9s-.1,1.5-.4,2.2c-.3.7-.7,1.5-1.4,2.4s-1.5,1.9-2.6,3c-1.1,1.1-2.5,2.4-4.2,3.9l-1.4,1.3-1.4-1.3c-1.7-1.5-3.1-2.8-4.2-3.9-1.1-1.1-2-2.1-2.6-3s-1.1-1.7-1.4-2.4c-.3-.7-.4-1.5-.4-2.2,0-1.6.5-2.9,1.6-3.9,1-1.1,2.4-1.6,3.9-1.6s1.7.2,2.5.6c.8.4,1.5.9,2,1.5.6-.7,1.2-1.2,2-1.5.8-.4,1.6-.6,2.5-.6M16.5.6c-1.2,0-2.3.2-3.3.7-.4.2-.8.4-1.2.7-.4-.3-.8-.5-1.2-.7-1-.5-2.2-.7-3.3-.7-2.1,0-3.9.7-5.3,2.2C.7,4.2,0,6,0,8.1s.2,2,.5,2.9c.3.9.9,1.9,1.6,2.9.7.9,1.7,2,2.8,3.2,1.1,1.1,2.5,2.5,4.3,4l1.5,1.3,1.3,1.2,1.3-1.2,1.5-1.3c1.7-1.5,3.1-2.9,4.3-4,1.2-1.2,2.1-2.2,2.8-3.2.8-1,1.3-2,1.6-2.9.3-.9.5-1.9.5-2.9,0-2.1-.7-3.9-2.2-5.3-1.4-1.4-3.2-2.2-5.3-2.2h0Z"/>
</svg>