<?xml version="1.0" encoding="UTF-8"?>
<svg id="Layer_1" data-name="Layer 1" xmlns="http://www.w3.org/2000/svg" viewBox="0 0 746.02 201.74">
  <defs>
    <style>
      .cls-1 {
        fill: #eaad00;
      }

      .cls-2 {
        fill: #1b4487;
      }
    </style>
  </defs>
  <path class="cls-2" d="M94.71,153.67c0,32.04-14.92,48.07-44.75,48.07-13.26,0-24.47-3.59-33.62-10.77-8.48-6.65-13.03-15.16-13.66-25.53-.08-1.37,1.01-2.53,2.38-2.53h19.73c1.15,0,2.18.82,2.34,1.96.56,3.9,2.8,7.75,6.73,11.54,4.58,4.42,9.71,6.63,15.39,6.63,14.99,0,22.49-9,22.49-26.99h0c0-2.05-2.4-3.12-3.95-1.77-6.29,5.45-14.8,8.17-25.53,8.17-13.18,0-23.52-4.58-31.02-13.73C3.75,139.55,0,128.34,0,115.08c0-14.36,4.03-26.36,12.08-35.99,8.05-9.63,18.51-14.44,31.37-14.44,10.3,0,18.41,2.58,24.31,7.75,1.56,1.37,3.99.33,3.99-1.75v-.54c0-1.31,1.06-2.38,2.38-2.38h18.21c1.31,0,2.38,1.06,2.38,2.38v83.57ZM75.06,112.94c0-8.52-2.37-15.39-7.1-20.6-4.74-5.21-10.97-7.81-18.71-7.81s-14.01,2.84-18.82,8.52c-4.82,5.68-7.22,12.87-7.22,21.55,0,18.63,8.68,27.94,26.05,27.94,7.89,0,14.17-2.8,18.82-8.41,4.65-5.6,6.99-12.67,6.99-21.19Z"/>
  <path class="cls-2" d="M150.12,71.47c0,2.11,2.5,3.14,4.04,1.7,5.72-5.37,13.53-8.05,23.43-8.05,3.25,0,6.3.54,9.12,1.61,1.04.39,1.67,1.46,1.52,2.56l-2.13,15.65c-.22,1.58-1.88,2.48-3.34,1.84-2.66-1.18-5.49-1.77-8.48-1.77-16.1,0-24.15,11.52-24.15,34.57v39.77c0,1.31-1.06,2.38-2.38,2.38h-18.21c-1.31,0-2.38-1.06-2.38-2.38v-88.77c0-1.31,1.06-2.38,2.38-2.38h18.21c1.31,0,2.38,1.06,2.38,2.38v.9Z"/>
  <path class="cls-1" d="M685.16,161.72h-17.74c-1.31,0-2.38-1.06-2.38-2.38v-.52c0-2.01-2.33-3.1-3.88-1.83-6.39,5.21-14.97,7.81-25.71,7.81-13.1,0-23.56-5.05-31.37-15.15-7.81-10.1-11.72-21.94-11.72-35.52s3.98-25.14,11.96-34.69c7.97-9.55,18.19-14.33,30.66-14.33,10.93,0,19.66,2.68,26.19,8.04,1.55,1.27,3.88.18,3.88-1.83v-.75c0-1.31,1.06-2.38,2.38-2.38h17.74c1.31,0,2.38,1.06,2.38,2.38v88.77c0,1.31-1.06,2.38-2.38,2.38ZM667.64,114.84c0-8.68-2.45-15.82-7.34-21.43-4.89-5.6-11.17-8.41-18.82-8.41s-13.89,2.72-18.71,8.17c-4.82,5.45-7.22,12.67-7.22,21.67s2.45,16.26,7.34,21.78c4.89,5.53,11.21,8.29,18.94,8.29s13.97-2.68,18.71-8.05c4.74-5.36,7.1-12.7,7.1-22.02Z"/>
  <path class="cls-1" d="M743.64,161.72h-18.21c-1.31,0-2.38-1.06-2.38-2.38V2.38c0-1.31,1.06-2.38,2.38-2.38h18.21c1.31,0,2.38,1.06,2.38,2.38v156.97c0,1.31-1.06,2.38-2.38,2.38Z"/>
  <path class="cls-2" d="M445.76,90.63h-18.32c-1.31,0-2.38,1.06-2.38,2.38v25.54c0,18.24-6.34,27.36-19.04,27.36h-34.03c-12.69,0-19.04-9.12-19.04-27.36v-25.54c0-1.31-1.06-2.38-2.38-2.38h-18.32c-1.31,0-2.38,1.06-2.38,2.38v29.83c0,27.92,14.04,41.88,42.12,41.88h34.03c28.08,0,42.12-13.96,42.12-41.88v-29.83c0-1.31-1.06-2.38-2.38-2.38Z"/>
  <rect class="cls-2" x="361.51" y="67.63" width="23" height="23" rx="2.38" ry="2.38"/>
  <rect class="cls-2" x="393.51" y="67.63" width="23" height="23" rx="2.38" ry="2.38"/>
  <path class="cls-2" d="M303.32,114.84c0,14.68-4.5,26.68-13.5,35.99-9,9.32-20.8,13.97-35.4,13.97s-26.48-4.65-35.64-13.97c-9.16-9.31-13.73-21.27-13.73-35.87s4.5-26.56,13.5-35.87c9-9.31,20.84-13.97,35.52-13.97s26.56,4.62,35.64,13.85c9.08,9.23,13.61,21.19,13.61,35.87ZM228.26,115.19c0,8.76,2.45,15.91,7.34,21.43,4.89,5.53,11.21,8.29,18.94,8.29s13.93-2.96,18.59-8.88c4.65-5.92,6.99-12.94,6.99-21.07s-2.37-15.15-7.1-21.07c-4.74-5.92-10.93-8.88-18.59-8.88s-13.93,2.84-18.82,8.52c-4.89,5.68-7.34,12.9-7.34,21.67Z"/>
  <path class="cls-1" d="M499.77,71.1c0,2.01,2.32,3.1,3.88,1.83,6.39-5.21,14.96-7.81,25.72-7.81,12.31,0,22.53,4.89,30.66,14.68,8.13,9.79,12.19,21.31,12.19,34.57,0,14.37-4.03,26.36-12.08,35.99-8.05,9.63-18.47,14.44-31.26,14.44-10.87,0-19.12-2.47-24.75-7.42-1.54-1.35-3.94-.34-3.96,1.71l-.39,39.82c-.01,1.3-1.07,2.35-2.38,2.35h-18.23c-1.31,0-2.38-1.06-2.38-2.38V70.57c0-1.31,1.06-2.38,2.38-2.38h18.21c1.31,0,2.38,1.06,2.38,2.38v.53ZM548.78,114.84c0-8.05-2.29-15.04-6.87-20.96-4.58-5.92-10.89-8.88-18.94-8.88-7.42,0-13.58,3-18.47,9-4.89,6-7.34,12.9-7.34,20.72s2.6,14.8,7.81,20.96,11.21,9.23,18,9.23c8.05,0,14.36-2.84,18.94-8.52,4.58-5.68,6.87-12.86,6.87-21.55Z"/>
</svg>