<?xml version="1.0" encoding="UTF-8"?>
<svg id="Layer_1" data-name="Layer 1" xmlns="http://www.w3.org/2000/svg" viewBox="0 0 16 20">
  <defs>
    <style>
      .cls-1 {
        fill: #fff;
      }
    </style>
  </defs>
  <path class="cls-1" d="M0,17v-2h2v-7c0-1.38.42-2.61,1.25-3.69s1.92-1.78,3.25-2.11v-.7c0-.42.15-.77.44-1.06s.65-.44,1.06-.44.77.15,1.06.44c.29.29.44.65.44,1.06v.7c1.33.33,2.42,1.04,3.25,2.11s1.25,2.3,1.25,3.69v7h2v2H0ZM8,20c-.55,0-1.02-.2-1.41-.59s-.59-.86-.59-1.41h4c0,.55-.2,1.02-.59,1.41s-.86.59-1.41.59Z"/>
</svg>