<?xml version="1.0" encoding="UTF-8"?>
<svg id="Layer_1" xmlns="http://www.w3.org/2000/svg" version="1.1" viewBox="0 0 24 24">
  <!-- Generator: Adobe Illustrator 29.3.1, SVG Export Plug-In . SVG Version: 2.1.0 Build 151)  -->
  <defs>
    <style>
      .st0 {
        fill: #eaad00;
      }
    </style>
  </defs>
  <path class="st0" d="M12,22c-1.3,0-2.4-.2-3.5-.7s-2-1.1-2.9-1.9c-.8-.8-1.5-1.8-1.9-2.9-.5-1.1-.7-2.3-.7-3.5s.2-2.4.7-3.5,1.1-2,1.9-2.9c.8-.8,1.8-1.5,2.9-1.9s2.3-.7,3.5-.7,2.4.2,3.5.7,2,1.1,2.9,1.9,1.5,1.8,1.9,2.9.7,2.3.7,3.5-.2,2.4-.7,3.5-1.1,2-1.9,2.9-1.8,1.5-2.9,1.9-2.3.7-3.5.7ZM14.8,17.2l1.4-1.4-3.2-3.2v-4.6h-2v5.4s3.8,3.8,3.8,3.8ZM5.6,2.3l1.4,1.4-4.2,4.3-1.4-1.4L5.6,2.3ZM18.4,2.3l4.3,4.3-1.4,1.4-4.3-4.3s1.4-1.4,1.4-1.4Z"/>
</svg>