<?xml version="1.0" encoding="UTF-8"?>
<svg id="Layer_1" xmlns="http://www.w3.org/2000/svg" version="1.1" viewBox="0 0 24 24">
  <!-- Generator: Adobe Illustrator 29.3.1, SVG Export Plug-In . SVG Version: 2.1.0 Build 151)  -->
  <defs>
    <style>
      .st0 {
        fill: #eaad00;
      }
    </style>
  </defs>
  <path class="st0" d="M12,12c-1.1,0-2-.4-2.8-1.2s-1.2-1.7-1.2-2.8.4-2,1.2-2.8,1.7-1.2,2.8-1.2,2,.4,2.8,1.2,1.2,1.7,1.2,2.8-.4,2-1.2,2.8-1.7,1.2-2.8,1.2ZM4,20v-2.8c0-.6,0-1.1.4-1.6s.7-.8,1.2-1.1c1-.5,2.1-.9,3.2-1.2,1.1-.3,2.2-.4,3.3-.4s2.2.1,3.3.4c1.1.3,2.1.6,3.2,1.2.5.3.9.6,1.2,1.1s.4,1,.4,1.6v2.8H4Z"/>
</svg>