<?xml version="1.0" encoding="UTF-8"?>
<svg id="Layer_1" data-name="Layer 1" xmlns="http://www.w3.org/2000/svg" viewBox="0 0 696.02 791.04">
  <defs>
    <style>
      .cls-1 {
        fill: #eaad00;
      }

      .cls-2 {
        fill: #1b4487;
      }
    </style>
  </defs>
  <g>
    <path class="cls-1" d="M309.97,579.17c-62.77,0-94.15-31.2-94.15-93.62v-66.68c0-2.94,2.38-5.32,5.32-5.32h40.96c2.94,0,5.32,2.38,5.32,5.32v57.1c0,40.78,14.18,61.17,42.55,61.17h76.07c28.38,0,42.55-20.39,42.55-61.17v-57.1c0-2.94,2.38-5.32,5.32-5.32h40.96c2.94,0,5.32,2.38,5.32,5.32v66.68c0,62.42-31.38,93.62-94.15,93.62h-76.07Z"/>
    <g>
      <rect class="cls-1" x="286.53" y="362.14" width="51.42" height="51.42" rx="2.38" ry="2.38"/>
      <rect class="cls-1" x="358.07" y="362.14" width="51.42" height="51.42" rx="2.38" ry="2.38"/>
    </g>
  </g>
  <path class="cls-2" d="M386.04,0c62.77,0,94.15,31.2,94.15,93.62v66.68c0,2.94-2.38,5.32-5.32,5.32h-40.96c-2.94,0-5.32-2.38-5.32-5.32v-57.1c0-40.78-14.18-61.17-42.55-61.17h-76.07c-28.38,0-42.55,20.39-42.55,61.17v57.1c0,2.94-2.38,5.32-5.32,5.32h-40.96c-2.94,0-5.32-2.38-5.32-5.32v-66.68C215.82,31.2,247.2,0,309.97,0h76.07Z"/>
  <path class="cls-2" d="M618.08,791.04H77.93c-21.73,0-42.62-9.17-57.34-25.15-14.71-15.98-22.12-37.57-20.32-59.22L43.47,186.19c3.33-40.11,37.43-71.48,77.66-71.48h.15l459.43.86c40.58.08,74.66,31.84,77.58,72.32l37.53,519.61c1.55,21.51-5.98,42.91-20.67,58.7-14.69,15.79-35.48,24.84-57.05,24.84h-.02ZM121.13,166.12c-13.69,0-25.29,10.67-26.42,24.32l-43.2,520.48c-.62,7.47,1.83,14.63,6.91,20.15s12.01,8.56,19.51,8.56h540.15c7.44,0,14.34-3,19.41-8.45,5.07-5.45,7.57-12.54,7.04-19.97l-37.53-519.61c-1-13.77-12.59-24.58-26.4-24.6l-459.42-.86h-.05v-.02Z"/>
</svg>