<?xml version="1.0" encoding="UTF-8"?>
<svg id="Layer_1" data-name="Layer 1" xmlns="http://www.w3.org/2000/svg" viewBox="0 0 384.04 448.04">
  <defs>
    <style>
      .cls-1 {
        fill: #1b4487;
      }
    </style>
  </defs>
  <path class="cls-1" d="M376.62,52.52c11.3-13.6,9.5-33.8-4.1-45.1s-33.8-9.5-45.1,4.1l-135.4,162.5L56.62,11.52C45.32-2.08,25.12-3.88,11.52,7.42-2.08,18.72-3.88,38.92,7.42,52.52l142.9,171.5L7.42,395.52c-11.3,13.6-9.5,33.8,4.1,45.1,13.6,11.3,33.8,9.5,45.1-4.1l135.4-162.5,135.4,162.5c11.3,13.6,31.5,15.4,45.1,4.1s15.4-31.5,4.1-45.1l-142.9-171.5L376.62,52.52Z"/>
</svg>